# xmcd
#
# Track frame offsets:
#	150
#	14208
#	29102
#	40494
#	58732
#	77302
#	88373
#	101916
#	111616
#	122558
#	137881
#	150957
#	168858
#
# Disc length: 2418 seconds
# Revision: 1
# Processed by: cddbd v1.5.2PL0 Copyright (c) Steve Scherf et al.
# Submitted via: dBpowerAMP V12.0
#
DISCID=b609700d
DTITLE=Seldom Scene - Scenechronized
DYEAR=2007
DGENRE=Country
TTITLE0=Hometown Blues
TTITLE1=Heart And Soul
TTITLE2=This Morning At Nine
TTITLE3=A Hundred And Ten In The Shade
TTITLE4=Katie Dear
TTITLE5=Sweetest Love
TTITLE6=Don't Bother With White Satin
TTITLE7=Mama Tried
TTITLE8=You Remind Me Of The Blues
TTITLE9=Please Be With Me
TTITLE10=Sad Old Train
TTITLE11=Tomorrow Is A Long Time
TTITLE12=Too Bad You're No Good
EXTD=
EXTT0=
EXTT1=
EXTT2=
EXTT3=
EXTT4=
EXTT5=
EXTT6=
EXTT7=
EXTT8=
EXTT9=
EXTT10=
EXTT11=
EXTT12=
PLAYORDER=
